# xmcd CD database file
#
# Track frame offsets:
#	150
#	22577
#	39925
#	62447
#
# Disc length: 1127 seconds
#
# Revision: 0
# Processed by: cddbd v1.5PL3 Copyright (c) Steve Scherf et al.
# Submitted via: CDex 1.51
#
DISCID=1d046504
DTITLE=KING - STARS
DYEAR=2004
DGENRE=Pop
TTITLE0=STARS -you don't have to worry about tomorrow-
TTITLE1=DMD(reinterprelation-FAT BOY and LITTLEPINE RMX
TTITLE2=DMD(reinterprelation-HEAVENS WiRE RMX)
TTITLE3=STARS -you don't have to worry about tomorrow-(instrumental)
EXTD=YEAR: 2004
EXTT0=
EXTT1=
EXTT2=
EXTT3=
PLAYORDER=
